HIERARCHY
ROOT joint_0
{
	OFFSET 0.000000 0.000000 0.000000
	CHANNELS 6 Xposition Yposition Zposition Zrotation Yrotation Xrotation 
	JOINT joint_1
	{
		OFFSET 6.590088 -1.122192 114.019043
		CHANNELS 3 Zrotation Yrotation Xrotation
		JOINT joint_2
		{
			OFFSET -5.956055 -0.820435 104.151001
			CHANNELS 3 Zrotation Yrotation Xrotation
			JOINT joint_3
			{
				OFFSET -7.343506 -1.103027 103.942993
				CHANNELS 3 Zrotation Yrotation Xrotation
				JOINT joint_4
				{
					OFFSET 3.109131 -2.857056 147.715942
					CHANNELS 3 Zrotation Yrotation Xrotation
					JOINT joint_5
					{
						OFFSET 28.592285 -2.852295 87.703979
						CHANNELS 3 Zrotation Yrotation Xrotation
						End Site
						{
							OFFSET 0.000000 0.000000 0.000000
						}
					}
				}
				JOINT joint_6
				{
					OFFSET -0.332520 -33.687378 82.401978
					CHANNELS 3 Zrotation Yrotation Xrotation
					JOINT joint_7
					{
						OFFSET -7.397461 -168.719177 -22.750977
						CHANNELS 3 Zrotation Yrotation Xrotation
						JOINT joint_8
						{
							OFFSET 17.065918 -24.903137 -272.721069
							CHANNELS 3 Zrotation Yrotation Xrotation
							JOINT joint_9
							{
								OFFSET 33.311279 -37.031616 -278.192993
								CHANNELS 3 Zrotation Yrotation Xrotation
								End Site
								{
									OFFSET 0.000000 0.000000 0.000000
								}
							}
						}
					}
				}
				JOINT joint_10
				{
					OFFSET 3.914307 30.461670 83.552979
					CHANNELS 3 Zrotation Yrotation Xrotation
					JOINT joint_11
					{
						OFFSET 15.543701 166.845459 -30.963013
						CHANNELS 3 Zrotation Yrotation Xrotation
						JOINT joint_12
						{
							OFFSET 35.734863 35.017700 -269.786011
							CHANNELS 3 Zrotation Yrotation Xrotation
							JOINT joint_13
							{
								OFFSET 70.506592 13.977783 -273.320007
								CHANNELS 3 Zrotation Yrotation Xrotation
								End Site
								{
									OFFSET 0.000000 0.000000 0.000000
								}
							}
						}
					}
				}
			}
		}
	}
	JOINT joint_14
	{
		OFFSET -0.314697 -95.093994 -116.004028
		CHANNELS 3 Zrotation Yrotation Xrotation
		JOINT joint_15
		{
			OFFSET -22.490723 2.017883 -455.510986
			CHANNELS 3 Zrotation Yrotation Xrotation
			JOINT joint_16
			{
				OFFSET -46.427490 7.144104 -496.360985
				CHANNELS 3 Zrotation Yrotation Xrotation
				JOINT joint_17
				{
					OFFSET 209.055420 -37.122803 -85.191002
					CHANNELS 3 Zrotation Yrotation Xrotation
					End Site
					{
						OFFSET 0.000000 0.000000 0.000000
					}
				}
			}
		}
	}
	JOINT joint_18
	{
		OFFSET 5.652832 94.642578 -116.244019
		CHANNELS 3 Zrotation Yrotation Xrotation
		JOINT joint_19
		{
			OFFSET -12.379883 -7.332642 -455.843994
			CHANNELS 3 Zrotation Yrotation Xrotation
			JOINT joint_20
			{
				OFFSET -45.227051 -8.172241 -496.457985
				CHANNELS 3 Zrotation Yrotation Xrotation
				JOINT joint_21
				{
					OFFSET 210.522949 -11.530396 -88.809004
					CHANNELS 3 Zrotation Yrotation Xrotation
					End Site
					{
						OFFSET 0.000000 0.000000 0.000000
					}
				}
			}
		}
	}
}
MOTION
Frames: 18
Frame Time: 0.016667
-2636.369873 892.634644 1181.922974 1.095256 1.673906 0.360374 0.226030 -0.165417 -0.981040 0.295930 0.003457 0.219516 0.269333 -0.002069 -0.154920 0.020495 -0.183599 -0.080468 0.000000 0.000000 0.000000 2.203177 1.355565 2.000640 -0.104014 1.687056 1.671014 -0.207490 2.019865 0.612062 0.000000 0.000000 0.000000 2.327447 0.850339 1.567093 -0.451441 0.748858 -2.783977 0.532257 4.103145 1.295487 0.000000 0.000000 0.000000 1.111030 -0.619440 -0.932537 1.114270 -0.419414 -0.973265 0.989827 1.032210 0.586723 0.000000 0.000000 0.000000 -0.218467 -0.813306 0.651301 -0.241427 -1.228451 1.731802 -0.118169 0.978378 0.003788 0.000000 0.000000 0.000000 
-2636.117676 892.665222 1181.895996 1.081917 1.690962 0.359635 0.227981 -0.152514 -0.974219 0.297296 0.002012 0.217680 0.270976 0.000717 -0.153479 0.020696 -0.179335 -0.080679 0.000000 0.000000 0.000000 2.204908 1.342768 2.022847 -0.104666 1.676871 1.643072 -0.207520 2.028480 0.621924 0.000000 0.000000 0.000000 2.307254 0.834296 1.552210 -0.454892 0.731551 -2.752575 0.513538 4.072710 1.226987 0.000000 0.000000 0.000000 1.114853 -0.635843 -0.936088 1.117832 -0.402331 -0.968286 0.993448 1.030178 0.587835 0.000000 0.000000 0.000000 -0.211005 -0.813664 0.637269 -0.234820 -1.235842 1.752922 -0.110097 0.981866 0.007377 0.000000 0.000000 0.000000 
-2635.858154 892.704041 1181.863037 1.063465 1.704894 0.358666 0.229009 -0.137626 -0.964372 0.297536 -0.000153 0.215702 0.271514 0.003990 -0.152064 0.021424 -0.182368 -0.083213 0.000000 0.000000 0.000000 2.213868 1.328174 2.045906 -0.106113 1.665852 1.618647 -0.210015 2.041618 0.616369 0.000000 0.000000 0.000000 2.292347 0.819001 1.532399 -0.458974 0.713729 -2.724244 0.497660 4.056236 1.167302 0.000000 0.000000 0.000000 1.119923 -0.651809 -0.942273 1.122347 -0.378539 -0.959345 0.998258 1.019744 0.587939 0.000000 0.000000 0.000000 -0.201524 -0.815573 0.625748 -0.226171 -1.231733 1.768146 -0.100287 0.979238 0.011364 0.000000 0.000000 0.000000 
-2635.597656 892.747864 1181.826050 1.042506 1.717425 0.357650 0.229826 -0.121924 -0.951842 0.297378 -0.001206 0.213108 0.271672 0.006345 -0.150688 0.022423 -0.187909 -0.086819 0.000000 0.000000 0.000000 2.224356 1.312093 2.070241 -0.108111 1.653569 1.596832 -0.214352 2.057510 0.598519 0.000000 0.000000 0.000000 2.277359 0.804776 1.509054 -0.463332 0.696723 -2.697110 0.483197 4.047907 1.111785 0.000000 0.000000 0.000000 1.125539 -0.668423 -0.949557 1.127316 -0.350238 -0.949111 1.003567 1.003980 0.587300 0.000000 0.000000 0.000000 -0.191298 -0.819141 0.615539 -0.216791 -1.220682 1.780225 -0.089867 0.972546 0.015385 0.000000 0.000000 0.000000 
-2635.349854 892.786255 1181.786011 1.024023 1.728677 0.357127 0.228748 -0.099852 -0.938520 0.295171 -0.003903 0.209550 0.270036 0.010535 -0.147224 0.023980 -0.194288 -0.092212 0.000000 0.000000 0.000000 2.234202 1.293691 2.094789 -0.109639 1.638835 1.574817 -0.217894 2.066942 0.579591 0.000000 0.000000 0.000000 2.262155 0.790128 1.481232 -0.466687 0.679618 -2.675542 0.473460 4.044198 1.073993 0.000000 0.000000 0.000000 1.130257 -0.686388 -0.955264 1.131615 -0.317573 -0.941401 1.007947 0.987068 0.586078 0.000000 0.000000 0.000000 -0.182258 -0.825774 0.605749 -0.208718 -1.202872 1.791247 -0.080637 0.962902 0.018744 0.000000 0.000000 0.000000 
-2635.123779 892.816833 1181.740967 1.009669 1.738016 0.356578 0.224873 -0.067648 -0.922634 0.289894 -0.009750 0.205365 0.265443 0.019175 -0.143946 0.026166 -0.204392 -0.099888 0.000000 0.000000 0.000000 2.244153 1.270611 2.120996 -0.110525 1.619394 1.553691 -0.220725 2.067615 0.556118 0.000000 0.000000 0.000000 2.246319 0.773644 1.450274 -0.468476 0.661621 -2.662914 0.470360 4.043476 1.061632 0.000000 0.000000 0.000000 1.133297 -0.706151 -0.957223 1.134691 -0.279448 -0.938482 1.010644 0.970143 0.584169 0.000000 0.000000 0.000000 -0.174747 -0.836915 0.596887 -0.202367 -1.175421 1.801867 -0.072865 0.948999 0.021255 0.000000 0.000000 0.000000 
-2634.910645 892.841858 1181.692017 0.998116 1.746149 0.356466 0.218965 -0.029499 -0.905825 0.282454 -0.015821 0.200526 0.258826 0.027769 -0.139383 0.028799 -0.214072 -0.108884 0.000000 0.000000 0.000000 2.253641 1.245715 2.147791 -0.110973 1.598040 1.532715 -0.222743 2.061113 0.530888 0.000000 0.000000 0.000000 2.230422 0.757286 1.415787 -0.469198 0.644188 -2.656353 0.471906 4.046636 1.066755 0.000000 0.000000 0.000000 1.135350 -0.727354 -0.957378 1.137040 -0.236888 -0.938455 1.012326 0.951685 0.581574 0.000000 0.000000 0.000000 -0.168493 -0.851030 0.588410 -0.197393 -1.141652 1.811787 -0.066335 0.932661 0.023111 0.000000 0.000000 0.000000 
-2634.701416 892.869812 1181.645996 0.988628 1.754857 0.356836 0.213692 0.009553 -0.887737 0.275536 -0.024249 0.195374 0.252755 0.039179 -0.135578 0.030571 -0.218275 -0.114711 0.000000 0.000000 0.000000 2.256338 1.223592 2.173080 -0.110279 1.578460 1.508819 -0.221257 2.042837 0.521141 0.000000 0.000000 0.000000 2.209233 0.741864 1.379227 -0.468985 0.628883 -2.652276 0.475613 4.049951 1.080280 0.000000 0.000000 0.000000 1.137124 -0.748922 -0.958369 1.139058 -0.194864 -0.938177 1.013722 0.933872 0.578977 0.000000 0.000000 0.000000 -0.163858 -0.865554 0.578742 -0.194093 -1.109298 1.823089 -0.061346 0.917773 0.024397 0.000000 0.000000 0.000000 
-2634.498535 892.901489 1181.603027 0.981051 1.764801 0.358302 0.209784 0.050406 -0.870895 0.270146 -0.032954 0.192062 0.248059 0.050127 -0.132063 0.031544 -0.212233 -0.117091 0.000000 0.000000 0.000000 2.248968 1.207144 2.193873 -0.107830 1.562883 1.482266 -0.214314 2.004664 0.533668 0.000000 0.000000 0.000000 2.180651 0.727935 1.340816 -0.467683 0.616932 -2.653091 0.481716 4.051431 1.103463 0.000000 0.000000 0.000000 1.138857 -0.771300 -0.961625 1.140863 -0.153937 -0.936585 1.015048 0.916198 0.576376 0.000000 0.000000 0.000000 -0.161335 -0.879694 0.566690 -0.192956 -1.081525 1.836714 -0.058377 0.906385 0.025024 0.000000 0.000000 0.000000 
-2634.298828 892.936035 1181.562012 0.975873 1.775512 0.360407 0.205815 0.091948 -0.852518 0.264510 -0.043465 0.187347 0.243247 0.062390 -0.128618 0.031627 -0.199004 -0.116042 0.000000 0.000000 0.000000 2.236569 1.193834 2.212952 -0.104280 1.549670 1.452948 -0.203847 1.954468 0.561606 0.000000 0.000000 0.000000 2.149128 0.715726 1.300376 -0.465418 0.607438 -2.656123 0.489747 4.052464 1.134246 0.000000 0.000000 0.000000 1.140324 -0.794086 -0.965773 1.142361 -0.113574 -0.935023 1.016088 0.898349 0.573627 0.000000 0.000000 0.000000 -0.160587 -0.894189 0.553008 -0.193667 -1.055648 1.852259 -0.057082 0.896726 0.025040 0.000000 0.000000 0.000000 
-2634.084717 892.965149 1181.520996 0.970508 1.788153 0.363009 0.202040 0.121188 -0.836706 0.259400 -0.050449 0.184016 0.238755 0.070965 -0.125572 0.031767 -0.179770 -0.114583 0.000000 0.000000 0.000000 2.225939 1.185161 2.232344 -0.101064 1.541466 1.421981 -0.193130 1.908399 0.596713 0.000000 0.000000 0.000000 2.120916 0.707961 1.258858 -0.463004 0.601103 -2.652761 0.496302 4.056772 1.158728 0.000000 0.000000 0.000000 1.142090 -0.816686 -0.969474 1.144242 -0.075912 -0.935044 1.017397 0.880813 0.571044 0.000000 0.000000 0.000000 -0.160170 -0.909792 0.539541 -0.194691 -1.030069 1.867027 -0.056157 0.886686 0.024880 0.000000 0.000000 0.000000 
-2633.843506 892.989258 1181.480957 0.964205 1.804347 0.366379 0.197425 0.129687 -0.823977 0.253885 -0.051527 0.182068 0.233502 0.073180 -0.124289 0.032066 -0.151974 -0.112778 0.000000 0.000000 0.000000 2.221318 1.182725 2.253719 -0.098522 1.540649 1.387532 -0.182386 1.870657 0.642087 0.000000 0.000000 0.000000 2.102982 0.707061 1.215405 -0.460927 0.598216 -2.635823 0.499318 4.068769 1.168136 0.000000 0.000000 0.000000 1.144109 -0.840032 -0.973535 1.146393 -0.041164 -0.936003 1.018928 0.862779 0.568462 0.000000 0.000000 0.000000 -0.159824 -0.926968 0.526419 -0.195731 -1.005794 1.879993 -0.055423 0.876327 0.024622 0.000000 0.000000 0.000000 
-2633.587891 893.008911 1181.441040 0.958144 1.822541 0.370063 0.192629 0.126190 -0.812300 0.248312 -0.049875 0.179519 0.228208 0.072376 -0.122508 0.032406 -0.118625 -0.110562 0.000000 0.000000 0.000000 2.219613 1.184686 2.275356 -0.096331 1.544777 1.350983 -0.171403 1.837506 0.695066 0.000000 0.000000 0.000000 2.089850 0.710566 1.170231 -0.458703 0.598085 -2.612188 0.500907 4.084188 1.171413 0.000000 0.000000 0.000000 1.146383 -0.863180 -0.977012 1.148889 -0.009158 -0.938575 1.020689 0.844919 0.566004 0.000000 0.000000 0.000000 -0.160012 -0.945423 0.513633 -0.197291 -0.981709 1.892240 -0.055247 0.865427 0.024100 0.000000 0.000000 0.000000 
-2633.340332 893.021301 1181.399048 0.951874 1.839999 0.374003 0.188540 0.123863 -0.801167 0.243477 -0.049183 0.177241 0.223669 0.072893 -0.120548 0.032910 -0.090892 -0.109393 0.000000 0.000000 0.000000 2.219552 1.185422 2.297283 -0.094754 1.547854 1.317695 -0.162642 1.813274 0.740044 0.000000 0.000000 0.000000 2.078420 0.714168 1.127511 -0.456470 0.598110 -2.589985 0.502002 4.095704 1.173433 0.000000 0.000000 0.000000 1.148793 -0.884334 -0.978676 1.151723 0.019618 -0.943935 1.022570 0.829246 0.563984 0.000000 0.000000 0.000000 -0.160013 -0.964347 0.499667 -0.198788 -0.956201 1.906784 -0.054794 0.855039 0.023722 0.000000 0.000000 0.000000 
-2633.112305 893.024902 1181.355957 0.945482 1.854341 0.377437 0.185725 0.130234 -0.789135 0.239781 -0.050620 0.174793 0.220295 0.075132 -0.118989 0.033410 -0.072481 -0.109123 0.000000 0.000000 0.000000 2.221528 1.183016 2.319745 -0.093921 1.547975 1.289321 -0.157048 1.801364 0.773069 0.000000 0.000000 0.000000 2.066741 0.716696 1.089878 -0.454237 0.597992 -2.572048 0.502477 4.099041 1.174424 0.000000 0.000000 0.000000 1.151422 -0.901073 -0.977113 1.155059 0.044152 -0.952658 1.024688 0.817228 0.562710 0.000000 0.000000 0.000000 -0.159467 -0.982489 0.485393 -0.199841 -0.927960 1.923676 -0.053676 0.845426 0.023666 0.000000 0.000000 0.000000 
-2632.891846 893.021179 1181.312012 0.938609 1.867810 0.380940 0.183945 0.138333 -0.777352 0.237105 -0.053858 0.172270 0.218015 0.078821 -0.116960 0.034013 -0.058275 -0.109573 0.000000 0.000000 0.000000 2.224454 1.179582 2.343160 -0.093752 1.547222 1.263363 -0.153654 1.798557 0.798421 0.000000 0.000000 0.000000 2.055832 0.719337 1.054348 -0.451889 0.598219 -2.555738 0.502749 4.098739 1.175255 0.000000 0.000000 0.000000 1.154363 -0.915513 -0.973498 1.158921 0.065112 -0.964230 1.027104 0.807829 0.562023 0.000000 0.000000 0.000000 -0.158708 -1.001047 0.470304 -0.200790 -0.898083 1.942540 -0.052272 0.836662 0.023778 0.000000 0.000000 0.000000 
-2632.669434 893.011597 1181.260986 0.931407 1.883535 0.384034 0.182658 0.140818 -0.764191 0.234956 -0.054970 0.170818 0.216073 0.081346 -0.116023 0.034795 -0.050870 -0.111234 0.000000 0.000000 0.000000 2.228465 1.175657 2.368737 -0.094385 1.546326 1.237559 -0.152274 1.803034 0.815467 0.000000 0.000000 0.000000 2.047732 0.722098 1.017377 -0.449395 0.597953 -2.539635 0.503689 4.099167 1.178615 0.000000 0.000000 0.000000 1.157780 -0.932297 -0.967939 1.163470 0.085977 -0.978024 1.029987 0.798564 0.561550 0.000000 0.000000 0.000000 -0.158298 -1.022090 0.454573 -0.202222 -0.867779 1.963976 -0.051081 0.827029 0.023752 0.000000 0.000000 0.000000 
-2632.438721 892.998291 1181.206055 0.920974 1.902827 0.386168 0.182935 0.135385 -0.747223 0.234110 -0.055312 0.167641 0.215632 0.083415 -0.113830 0.036562 -0.051335 -0.116674 0.000000 0.000000 0.000000 2.233997 1.171544 2.397857 -0.096217 1.545848 1.210099 -0.153481 1.816481 0.821383 0.000000 0.000000 0.000000 2.042106 0.725519 0.975434 -0.446410 0.597440 -2.522879 0.506132 4.102115 1.187476 0.000000 0.000000 0.000000 1.162662 -0.952803 -0.960470 1.169680 0.106573 -0.993607 1.034313 0.790161 0.561818 0.000000 0.000000 0.000000 -0.157690 -1.045902 0.438907 -0.203546 -0.837963 1.987413 -0.049605 0.816698 0.023808 0.000000 0.000000 0.000000 
